<svg width="100" height="100" viewBox="0 0 100 100" fill="none" xmlns="http://www.w3.org/2000/svg">
  <!-- 
    WEDNEST LOGO - Heart Breaking Outside
    Usage: App icon, favicon base, social avatar
  -->
  
  <!-- Circle with break for heart -->
  <path 
    d="M50 8 A42 42 0 1 0 88 38" 
    stroke="#B8907A" 
    stroke-width="4" 
    stroke-linecap="round"
    fill="none"/>
  
  <!-- W letterform -->
  <path 
    d="M25 42 
       C27 58 32 64 36 64 
       C42 64 46 52 50 52 
       C54 52 58 64 64 64 
       C68 64 73 58 75 42" 
    stroke="#B8907A" 
    stroke-width="4" 
    stroke-linecap="round" 
    stroke-linejoin="round"
    fill="none"/>
  
  <!-- Heart (top-right, breaking circle) -->
  <path 
    d="M78 22 
       C78 16 84 12 90 14 
       C96 16 98 24 94 30 
       L78 46 
       L62 30 
       C58 24 60 16 66 14 
       C72 12 78 16 78 22Z" 
    fill="#C9A08A"/>
  
</svg>
